<svg width="464" height="96" viewBox="0 0 464 96" fill="none" xmlns="http://www.w3.org/2000/svg">
<path d="M122.78 57L114.38 41.4H113.12V57H101.36V14.7H119.9C123.3 14.7 126.18 15.3 128.54 16.5C130.9 17.66 132.68 19.28 133.88 21.36C135.08 23.4 135.68 25.7 135.68 28.26C135.68 31.14 134.88 33.68 133.28 35.88C131.72 38.04 129.42 39.58 126.38 40.5L135.92 57H122.78ZM113.12 33.36H118.94C120.54 33.36 121.74 32.98 122.54 32.22C123.34 31.46 123.74 30.36 123.74 28.92C123.74 27.56 123.32 26.5 122.48 25.74C121.68 24.94 120.5 24.54 118.94 24.54H113.12V33.36ZM156.688 57.42C153.328 57.42 150.308 56.72 147.628 55.32C144.988 53.92 142.908 51.92 141.388 49.32C139.868 46.72 139.108 43.66 139.108 40.14C139.108 36.66 139.868 33.62 141.388 31.02C142.948 28.42 145.048 26.42 147.688 25.02C150.368 23.62 153.388 22.92 156.748 22.92C160.108 22.92 163.108 23.62 165.748 25.02C168.428 26.42 170.528 28.42 172.048 31.02C173.608 33.62 174.388 36.66 174.388 40.14C174.388 43.62 173.608 46.68 172.048 49.32C170.528 51.92 168.428 53.92 165.748 55.32C163.068 56.72 160.048 57.42 156.688 57.42ZM156.688 47.22C158.328 47.22 159.688 46.62 160.768 45.42C161.888 44.18 162.448 42.42 162.448 40.14C162.448 37.86 161.888 36.12 160.768 34.92C159.688 33.72 158.348 33.12 156.748 33.12C155.148 33.12 153.808 33.72 152.728 34.92C151.648 36.12 151.108 37.86 151.108 40.14C151.108 42.46 151.628 44.22 152.668 45.42C153.708 46.62 155.048 47.22 156.688 47.22ZM213.613 23.34V57H201.793V52.2C200.793 53.72 199.413 54.96 197.653 55.92C195.893 56.84 193.873 57.3 191.593 57.3C187.673 57.3 184.573 56.02 182.293 53.46C180.053 50.86 178.933 47.34 178.933 42.9V23.34H190.633V41.4C190.633 43.32 191.133 44.84 192.133 45.96C193.173 47.04 194.533 47.58 196.213 47.58C197.933 47.58 199.293 47.04 200.293 45.96C201.293 44.84 201.793 43.32 201.793 41.4V23.34H213.613ZM242.325 23.04C246.205 23.04 249.285 24.34 251.565 26.94C253.845 29.5 254.985 32.98 254.985 37.38V57H243.225V38.94C243.225 37.02 242.725 35.52 241.725 34.44C240.725 33.32 239.385 32.76 237.705 32.76C235.945 32.76 234.565 33.32 233.565 34.44C232.565 35.52 232.065 37.02 232.065 38.94V57H220.305V23.34H232.065V28.14C233.105 26.62 234.505 25.4 236.265 24.48C238.025 23.52 240.045 23.04 242.325 23.04ZM259.518 40.14C259.518 36.66 260.138 33.62 261.378 31.02C262.658 28.42 264.398 26.42 266.598 25.02C268.798 23.62 271.238 22.92 273.918 22.92C276.078 22.92 277.998 23.38 279.678 24.3C281.398 25.18 282.738 26.4 283.698 27.96V12.6H295.518V57H283.698V52.32C282.778 53.88 281.478 55.12 279.798 56.04C278.118 56.96 276.138 57.42 273.858 57.42C271.178 57.42 268.738 56.72 266.538 55.32C264.378 53.92 262.658 51.92 261.378 49.32C260.138 46.68 259.518 43.62 259.518 40.14ZM283.758 40.14C283.758 37.98 283.158 36.28 281.958 35.04C280.798 33.8 279.358 33.18 277.638 33.18C275.878 33.18 274.418 33.8 273.258 35.04C272.098 36.24 271.518 37.94 271.518 40.14C271.518 42.3 272.098 44.02 273.258 45.3C274.418 46.54 275.878 47.16 277.638 47.16C279.358 47.16 280.798 46.54 281.958 45.3C283.158 44.06 283.758 42.34 283.758 40.14ZM335.124 57L326.724 41.4H325.464V57H313.704V14.7H332.244C335.644 14.7 338.524 15.3 340.884 16.5C343.244 17.66 345.024 19.28 346.224 21.36C347.424 23.4 348.024 25.7 348.024 28.26C348.024 31.14 347.224 33.68 345.624 35.88C344.064 38.04 341.764 39.58 338.724 40.5L348.264 57H335.124ZM325.464 33.36H331.284C332.884 33.36 334.084 32.98 334.884 32.22C335.684 31.46 336.084 30.36 336.084 28.92C336.084 27.56 335.664 26.5 334.824 25.74C334.024 24.94 332.844 24.54 331.284 24.54H325.464V33.36ZM369.032 57.42C365.672 57.42 362.652 56.72 359.972 55.32C357.332 53.92 355.252 51.92 353.732 49.32C352.212 46.72 351.452 43.66 351.452 40.14C351.452 36.66 352.212 33.62 353.732 31.02C355.292 28.42 357.392 26.42 360.032 25.02C362.712 23.62 365.732 22.92 369.092 22.92C372.452 22.92 375.452 23.62 378.092 25.02C380.772 26.42 382.872 28.42 384.392 31.02C385.952 33.62 386.732 36.66 386.732 40.14C386.732 43.62 385.952 46.68 384.392 49.32C382.872 51.92 380.772 53.92 378.092 55.32C375.412 56.72 372.392 57.42 369.032 57.42ZM369.032 47.22C370.672 47.22 372.032 46.62 373.112 45.42C374.232 44.18 374.792 42.42 374.792 40.14C374.792 37.86 374.232 36.12 373.112 34.92C372.032 33.72 370.692 33.12 369.092 33.12C367.492 33.12 366.152 33.72 365.072 34.92C363.992 36.12 363.452 37.86 363.452 40.14C363.452 42.46 363.972 44.22 365.012 45.42C366.052 46.62 367.392 47.22 369.032 47.22ZM389.596 40.14C389.596 36.66 390.316 33.62 391.756 31.02C393.196 28.42 395.196 26.42 397.756 25.02C400.356 23.62 403.316 22.92 406.636 22.92C410.916 22.92 414.516 24.1 417.436 26.46C420.356 28.78 422.236 32.04 423.076 36.24H410.596C409.876 34.04 408.476 32.94 406.396 32.94C404.916 32.94 403.736 33.56 402.856 34.8C402.016 36 401.596 37.78 401.596 40.14C401.596 42.5 402.016 44.3 402.856 45.54C403.736 46.78 404.916 47.4 406.396 47.4C408.516 47.4 409.916 46.3 410.596 44.1H423.076C422.236 48.26 420.356 51.52 417.436 53.88C414.516 56.24 410.916 57.42 406.636 57.42C403.316 57.42 400.356 56.72 397.756 55.32C395.196 53.92 393.196 51.92 391.756 49.32C390.316 46.72 389.596 43.66 389.596 40.14ZM449.022 57L439.722 43.2V57H427.962V12.6H439.722V36.54L449.022 23.34H463.122L449.862 40.26L463.362 57H449.022ZM116.819 69.965L110.123 82.952V89H104.804V82.952L98.108 69.965H104.156L107.504 77.309L110.852 69.965H116.819ZM124.6 81.413C124.6 79.847 124.879 78.479 125.437 77.309C126.013 76.139 126.787 75.239 127.759 74.609C128.749 73.979 129.847 73.664 131.053 73.664C132.097 73.664 132.997 73.871 133.753 74.285C134.509 74.699 135.094 75.257 135.508 75.959V73.853H140.8V89H135.508V86.894C135.094 87.596 134.5 88.154 133.726 88.568C132.97 88.982 132.079 89.189 131.053 89.189C129.847 89.189 128.749 88.874 127.759 88.244C126.787 87.614 126.013 86.714 125.437 85.544C124.879 84.356 124.6 82.979 124.6 81.413ZM135.508 81.413C135.508 80.441 135.238 79.676 134.698 79.118C134.176 78.56 133.528 78.281 132.754 78.281C131.962 78.281 131.305 78.56 130.783 79.118C130.261 79.658 130 80.423 130 81.413C130 82.385 130.261 83.159 130.783 83.735C131.305 84.293 131.962 84.572 132.754 84.572C133.528 84.572 134.176 84.293 134.698 83.735C135.238 83.177 135.508 82.403 135.508 81.413ZM156.127 76.526C156.721 75.662 157.441 74.978 158.287 74.474C159.133 73.97 160.042 73.718 161.014 73.718V79.361H159.529C158.377 79.361 157.522 79.586 156.964 80.036C156.406 80.486 156.127 81.269 156.127 82.385V89H150.835V73.853H156.127V76.526ZM169.067 81.413C169.067 79.847 169.346 78.479 169.904 77.309C170.48 76.139 171.263 75.239 172.253 74.609C173.243 73.979 174.341 73.664 175.547 73.664C176.519 73.664 177.383 73.871 178.139 74.285C178.913 74.681 179.516 75.23 179.948 75.932V69.02H185.267V89H179.948V86.894C179.534 87.596 178.949 88.154 178.193 88.568C177.437 88.982 176.546 89.189 175.52 89.189C174.314 89.189 173.216 88.874 172.226 88.244C171.254 87.614 170.48 86.714 169.904 85.544C169.346 84.356 169.067 82.979 169.067 81.413ZM179.975 81.413C179.975 80.441 179.705 79.676 179.165 79.118C178.643 78.56 177.995 78.281 177.221 78.281C176.429 78.281 175.772 78.56 175.25 79.118C174.728 79.658 174.467 80.423 174.467 81.413C174.467 82.385 174.728 83.159 175.25 83.735C175.772 84.293 176.429 84.572 177.221 84.572C177.995 84.572 178.643 84.293 179.165 83.735C179.705 83.177 179.975 82.403 179.975 81.413ZM229.712 69.965V89H224.42V78.497L220.829 89H216.401L212.783 78.416V89H207.491V69.965H213.89L218.669 82.331L223.34 69.965H229.712ZM238.88 81.413C238.88 79.847 239.159 78.479 239.717 77.309C240.293 76.139 241.067 75.239 242.039 74.609C243.029 73.979 244.127 73.664 245.333 73.664C246.377 73.664 247.277 73.871 248.033 74.285C248.789 74.699 249.374 75.257 249.788 75.959V73.853H255.08V89H249.788V86.894C249.374 87.596 248.78 88.154 248.006 88.568C247.25 88.982 246.359 89.189 245.333 89.189C244.127 89.189 243.029 88.874 242.039 88.244C241.067 87.614 240.293 86.714 239.717 85.544C239.159 84.356 238.88 82.979 238.88 81.413ZM249.788 81.413C249.788 80.441 249.518 79.676 248.978 79.118C248.456 78.56 247.808 78.281 247.034 78.281C246.242 78.281 245.585 78.56 245.063 79.118C244.541 79.658 244.28 80.423 244.28 81.413C244.28 82.385 244.541 83.159 245.063 83.735C245.585 84.293 246.242 84.572 247.034 84.572C247.808 84.572 248.456 84.293 248.978 83.735C249.518 83.177 249.788 82.403 249.788 81.413ZM267.789 72.449C266.853 72.449 266.097 72.197 265.521 71.693C264.963 71.171 264.684 70.523 264.684 69.749C264.684 68.957 264.963 68.3 265.521 67.778C266.097 67.256 266.853 66.995 267.789 66.995C268.707 66.995 269.445 67.256 270.003 67.778C270.579 68.3 270.867 68.957 270.867 69.749C270.867 70.523 270.579 71.171 270.003 71.693C269.445 72.197 268.707 72.449 267.789 72.449ZM270.408 73.853V89H265.116V73.853H270.408ZM290.351 73.718C292.097 73.718 293.483 74.303 294.509 75.473C295.535 76.625 296.048 78.191 296.048 80.171V89H290.756V80.873C290.756 80.009 290.531 79.334 290.081 78.848C289.631 78.344 289.028 78.092 288.272 78.092C287.48 78.092 286.859 78.344 286.409 78.848C285.959 79.334 285.734 80.009 285.734 80.873V89H280.442V73.853H285.734V76.013C286.202 75.329 286.832 74.78 287.624 74.366C288.416 73.934 289.325 73.718 290.351 73.718ZM314.908 84.491V89H312.613C308.743 89 306.808 87.083 306.808 83.249V78.254H304.945V73.853H306.808V70.181H312.127V73.853H314.881V78.254H312.127V83.33C312.127 83.744 312.217 84.041 312.397 84.221C312.595 84.401 312.919 84.491 313.369 84.491H314.908ZM338.828 81.251C338.828 81.665 338.801 82.079 338.747 82.493H328.73C328.784 83.321 329.009 83.942 329.405 84.356C329.819 84.752 330.341 84.95 330.971 84.95C331.853 84.95 332.483 84.554 332.861 83.762H338.504C338.27 84.806 337.811 85.742 337.127 86.57C336.461 87.38 335.615 88.019 334.589 88.487C333.563 88.955 332.429 89.189 331.187 89.189C329.693 89.189 328.361 88.874 327.191 88.244C326.039 87.614 325.13 86.714 324.464 85.544C323.816 84.374 323.492 82.997 323.492 81.413C323.492 79.829 323.816 78.461 324.464 77.309C325.112 76.139 326.012 75.239 327.164 74.609C328.334 73.979 329.675 73.664 331.187 73.664C332.681 73.664 334.004 73.97 335.156 74.582C336.308 75.194 337.208 76.076 337.856 77.228C338.504 78.362 338.828 79.703 338.828 81.251ZM333.428 79.928C333.428 79.28 333.212 78.776 332.78 78.416C332.348 78.038 331.808 77.849 331.16 77.849C330.512 77.849 329.981 78.029 329.567 78.389C329.153 78.731 328.883 79.244 328.757 79.928H333.428ZM357.922 73.718C359.668 73.718 361.054 74.303 362.08 75.473C363.106 76.625 363.619 78.191 363.619 80.171V89H358.327V80.873C358.327 80.009 358.102 79.334 357.652 78.848C357.202 78.344 356.599 78.092 355.843 78.092C355.051 78.092 354.43 78.344 353.98 78.848C353.53 79.334 353.305 80.009 353.305 80.873V89H348.013V73.853H353.305V76.013C353.773 75.329 354.403 74.78 355.195 74.366C355.987 73.934 356.896 73.718 357.922 73.718ZM372.679 81.413C372.679 79.847 372.958 78.479 373.516 77.309C374.092 76.139 374.866 75.239 375.838 74.609C376.828 73.979 377.926 73.664 379.132 73.664C380.176 73.664 381.076 73.871 381.832 74.285C382.588 74.699 383.173 75.257 383.587 75.959V73.853H388.879V89H383.587V86.894C383.173 87.596 382.579 88.154 381.805 88.568C381.049 88.982 380.158 89.189 379.132 89.189C377.926 89.189 376.828 88.874 375.838 88.244C374.866 87.614 374.092 86.714 373.516 85.544C372.958 84.356 372.679 82.979 372.679 81.413ZM383.587 81.413C383.587 80.441 383.317 79.676 382.777 79.118C382.255 78.56 381.607 78.281 380.833 78.281C380.041 78.281 379.384 78.56 378.862 79.118C378.34 79.658 378.079 80.423 378.079 81.413C378.079 82.385 378.34 83.159 378.862 83.735C379.384 84.293 380.041 84.572 380.833 84.572C381.607 84.572 382.255 84.293 382.777 83.735C383.317 83.177 383.587 82.403 383.587 81.413ZM408.824 73.718C410.57 73.718 411.956 74.303 412.982 75.473C414.008 76.625 414.521 78.191 414.521 80.171V89H409.229V80.873C409.229 80.009 409.004 79.334 408.554 78.848C408.104 78.344 407.501 78.092 406.745 78.092C405.953 78.092 405.332 78.344 404.882 78.848C404.432 79.334 404.207 80.009 404.207 80.873V89H398.915V73.853H404.207V76.013C404.675 75.329 405.305 74.78 406.097 74.366C406.889 73.934 407.798 73.718 408.824 73.718ZM423.58 81.413C423.58 79.847 423.904 78.479 424.552 77.309C425.2 76.139 426.1 75.239 427.252 74.609C428.422 73.979 429.754 73.664 431.248 73.664C433.174 73.664 434.794 74.195 436.108 75.257C437.422 76.301 438.268 77.768 438.646 79.658H433.03C432.706 78.668 432.076 78.173 431.14 78.173C430.474 78.173 429.943 78.452 429.547 79.01C429.169 79.55 428.98 80.351 428.98 81.413C428.98 82.475 429.169 83.285 429.547 83.843C429.943 84.401 430.474 84.68 431.14 84.68C432.094 84.68 432.724 84.185 433.03 83.195H438.646C438.268 85.067 437.422 86.534 436.108 87.596C434.794 88.658 433.174 89.189 431.248 89.189C429.754 89.189 428.422 88.874 427.252 88.244C426.1 87.614 425.2 86.714 424.552 85.544C423.904 84.374 423.58 82.997 423.58 81.413ZM462.337 81.251C462.337 81.665 462.31 82.079 462.256 82.493H452.239C452.293 83.321 452.518 83.942 452.914 84.356C453.328 84.752 453.85 84.95 454.48 84.95C455.362 84.95 455.992 84.554 456.37 83.762H462.013C461.779 84.806 461.32 85.742 460.636 86.57C459.97 87.38 459.124 88.019 458.098 88.487C457.072 88.955 455.938 89.189 454.696 89.189C453.202 89.189 451.87 88.874 450.7 88.244C449.548 87.614 448.639 86.714 447.973 85.544C447.325 84.374 447.001 82.997 447.001 81.413C447.001 79.829 447.325 78.461 447.973 77.309C448.621 76.139 449.521 75.239 450.673 74.609C451.843 73.979 453.184 73.664 454.696 73.664C456.19 73.664 457.513 73.97 458.665 74.582C459.817 75.194 460.717 76.076 461.365 77.228C462.013 78.362 462.337 79.703 462.337 81.251ZM456.937 79.928C456.937 79.28 456.721 78.776 456.289 78.416C455.857 78.038 455.317 77.849 454.669 77.849C454.021 77.849 453.49 78.029 453.076 78.389C452.662 78.731 452.392 79.244 452.266 79.928H456.937Z" fill="white"/>
<g clip-path="url(#clip0_30_93)">
<path d="M14.0241 47.88C13.8876 48.115 13.8374 48.3912 13.8822 48.66C13.927 48.9288 14.0639 49.1729 14.2689 49.3494C21.9228 55.9177 23.7513 66.3685 24.0397 68.3963C24.0788 68.6714 24.2142 68.9231 24.4212 69.1054C24.6283 69.2876 24.8931 69.3883 25.1674 69.389C25.2213 69.3884 25.2751 69.3841 25.3285 69.3759C25.6274 69.3323 25.897 69.1703 26.0782 68.9254C26.2594 68.6805 26.3374 68.3729 26.2951 68.0698C25.9407 65.5783 24.5133 58.1284 19.6126 51.707C22.6156 53.1977 25.6024 55.1651 28.362 58.2068C31.3134 61.6648 33.1096 66.811 33.1274 66.86C33.1752 67.0051 33.2511 67.1392 33.3505 67.2544C33.4499 67.3697 33.5709 67.4637 33.7064 67.5312C33.842 67.5986 33.9894 67.6382 34.1401 67.6474C34.2909 67.6567 34.4419 67.6355 34.5845 67.5851C34.7271 67.5348 34.8585 67.4562 34.9709 67.354C35.0833 67.2518 35.1745 67.128 35.2393 66.9897C35.3042 66.8515 35.3412 66.7016 35.3484 66.5487C35.3556 66.3958 35.3328 66.243 35.2813 66.0992C35.2056 65.8771 33.4206 60.7554 30.3258 56.979C30.0906 53.6271 29.2642 46.9331 26.3821 40.7387C29.0222 43.2153 31.3194 46.0426 33.2111 49.1437L33.2321 49.1813C35.1317 52.3122 36.6506 55.6645 37.7558 59.1651V59.1766V59.1929C38.2391 60.7162 38.8223 63.2158 39.2057 65.0477C39.2602 65.3068 39.4009 65.5391 39.604 65.7058C39.8072 65.8725 40.0607 65.9635 40.3221 65.9636C40.4022 65.9635 40.4821 65.9553 40.5605 65.9391C40.8566 65.8749 41.1155 65.6943 41.2804 65.4369C41.4453 65.1795 41.5027 64.8663 41.4401 64.5661C41.0728 62.8224 40.5299 60.4843 40.0466 58.8647C41.2646 55.4132 42.8907 52.1238 44.8893 49.0686L44.9779 48.9364C46.8959 46.0178 49.1887 43.3708 51.7957 41.0652C48.622 47.4327 47.6602 54.3944 47.3767 57.5945V57.6108C47.3767 57.619 47.3767 57.6288 47.3767 57.6369C47.1012 62.9497 48.1661 66.6526 48.2112 66.8077C48.3066 67.0899 48.5057 67.3239 48.7671 67.4609C49.0285 67.5979 49.332 67.6273 49.6143 67.5431C49.8966 67.4589 50.1359 67.2675 50.2824 67.0088C50.4289 66.7502 50.4712 66.4442 50.4006 66.1547C50.3909 66.122 49.4629 62.8566 49.6369 58.1986C52.0755 55.685 54.8828 53.5686 57.9594 51.9242C56.1422 54.4108 54.7744 57.3692 53.9222 60.695C52.8541 64.8763 52.9798 68.1465 52.9862 68.2837C52.9991 68.5811 53.1247 68.8621 53.3369 69.068C53.549 69.2739 53.8314 69.3889 54.1252 69.389H54.1767C54.4792 69.3755 54.764 69.2407 54.9685 69.0145C55.173 68.7883 55.2805 68.489 55.2674 68.1825C55.2674 68.0616 54.8469 55.9814 63.6543 49.4066C63.8746 49.2422 64.0294 49.0031 64.0905 48.7328C64.1516 48.4625 64.1149 48.1789 63.9871 47.9337C63.8593 47.6885 63.6489 47.498 63.3941 47.3967C63.1394 47.2955 62.8573 47.2903 62.5991 47.3821C57.7081 49.1209 53.6532 51.4638 50.0542 54.6442C50.784 49.9095 52.569 42.6554 56.9058 37.3019C57.077 37.092 57.1696 36.8277 57.1673 36.5555C57.1651 36.2833 57.0681 36.0206 56.8934 35.8137C56.7188 35.6069 56.4777 35.4691 56.2126 35.4248C55.9476 35.3804 55.6756 35.4323 55.4446 35.5712C52.519 37.3051 48.382 40.4317 44.464 45.6971C42.584 39.0701 42.3487 35.1418 44.0854 28.1768C44.1465 27.9302 44.1258 27.67 44.0265 27.4365C43.9272 27.203 43.7548 27.0092 43.5359 26.8849C43.3171 26.7606 43.0639 26.7128 42.8155 26.7489C42.5672 26.785 42.3375 26.9029 42.1619 27.0845C36.1705 33.2887 33.9619 39.8929 33.3013 45.1355C29.625 40.0235 25.7071 36.9035 22.8878 35.1206C22.6603 34.9774 22.3904 34.9197 22.1253 34.9576C21.8601 34.9956 21.6165 35.1268 21.4371 35.3283C21.2576 35.5297 21.1538 35.7887 21.1436 36.0599C21.1335 36.3312 21.2177 36.5974 21.3815 36.8121C25.5927 42.3044 27.1811 49.6384 27.7788 54.3928C23.7658 50.8107 19.4902 48.9641 15.4079 47.387C15.1569 47.2907 14.8804 47.2874 14.6272 47.3777C14.3741 47.4679 14.1605 47.6458 14.0241 47.88ZM42.7966 48.1119C41.2827 50.4609 39.9796 52.9427 38.9028 55.5275C37.9292 53.0061 36.7434 50.5743 35.3586 48.2588C35.4665 43.9355 36.6136 37.9729 40.9697 32.0479C40.1465 37.5468 40.8473 41.666 42.7966 48.1119Z" fill="white"/>
<path d="M74.4479 65.3122C72.8852 64.1122 70.0805 65.3579 66.554 68.8208C66.526 68.8475 66.4997 68.8759 66.475 68.9057C63.8427 72.0715 54.1879 78.3557 47.7117 79.83L47.6746 79.8382C44.19 80.7541 42.8561 80.6806 42.405 80.5859C42.5661 80.212 43.0575 79.5231 43.8871 78.7524C45.9702 76.8161 48.2224 74.354 47.1317 72.4846C46.2118 70.9106 43.5037 70.091 30.0373 74.7197C23.7238 76.8895 17.1364 75.3483 10.4588 70.1368C7.28308 67.6239 4.46796 64.6753 2.09446 61.3758C1.95879 61.1683 1.76075 61.0107 1.52971 60.9263C1.29866 60.8419 1.04693 60.8352 0.811836 60.9072C0.576746 60.9792 0.370825 61.1261 0.224615 61.3261C0.0784058 61.5261 -0.000304521 61.7685 0.000159234 62.0174C-0.00766291 62.1808 0.0250141 62.3436 0.0952085 62.4909C2.77822 69.8917 7.46248 76.3777 13.6121 81.207C19.7618 86.0363 27.1286 89.0139 34.8697 89.7991C42.6108 90.5844 50.4137 89.1456 57.3858 85.6473C64.3579 82.1491 70.2177 76.7326 74.2948 70.0176C74.2969 70.0124 74.2996 70.0074 74.3029 70.0029L74.5897 69.5131L74.6138 69.4706C75.5691 67.6812 75.5063 66.1253 74.4479 65.3122ZM72.6162 68.3522L72.3455 68.8094C65.1524 80.63 52.6913 87.6848 38.9977 87.6848C25.4653 87.6848 13.0267 80.5402 5.93993 69.2714C7.24629 70.5202 8.63205 71.6808 10.0883 72.7458C13.1637 74.9793 16.2955 76.5189 19.3999 77.3173C23.1469 78.3191 27.1023 78.1777 30.7703 76.9108C42.0119 73.0478 44.5911 73.4593 45.1083 73.6699C45.0277 73.9785 44.5992 74.9499 42.3422 77.0479C40.9503 78.3394 39.4649 80.2023 40.2882 81.7386C41.1114 83.275 43.399 83.3501 48.2288 82.0831C55.2028 80.4896 65.241 73.9295 68.1795 70.4437C70.9295 67.7563 72.4986 67.1783 73.0028 67.1783C72.9996 67.3661 72.9271 67.7628 72.6162 68.3522Z" fill="white"/>
<path d="M77.9053 33.514C75.2238 26.112 70.5404 19.6245 64.3909 14.7938C58.2415 9.96318 50.8744 6.98454 43.1327 6.19873C35.3911 5.41291 27.5875 6.85167 20.6149 10.3504C13.6423 13.8491 7.78235 19.2664 3.70562 25.9824L3.69757 25.9955L3.41081 26.4853L3.38664 26.5294C2.43132 28.3253 2.49253 29.8764 3.54774 30.6894C5.11042 31.8895 7.91517 30.6454 11.4417 27.1824C11.47 27.1556 11.4964 27.1267 11.5206 27.0959C14.161 23.9269 23.8158 17.6427 30.2872 16.17L30.3242 16.1602C33.8088 15.2459 35.1428 15.3194 35.5938 15.414C35.4327 15.7879 34.9414 16.4769 34.1133 17.2459C32.0287 19.1823 29.7765 21.6444 30.8688 23.5154C31.7886 25.0893 34.4951 25.9089 47.9615 21.2803C54.275 19.1104 60.8624 20.6517 67.5417 25.8616C70.7176 28.3743 73.5323 31.3236 75.9044 34.6242C76.009 34.782 76.1502 34.9115 76.3156 35.0011C76.4811 35.0908 76.6657 35.138 76.8533 35.1385C76.9202 35.1382 76.9871 35.1322 77.053 35.1206C77.3179 35.0732 77.5577 34.9326 77.7301 34.7234C77.9025 34.5143 77.9965 34.2502 77.9955 33.9777C78.0036 33.8179 77.9726 33.6586 77.9053 33.514ZM67.909 23.2526C64.8352 21.0207 61.7018 19.4811 58.599 18.6794C54.8532 17.6792 50.8995 17.8217 47.2333 19.0892C35.9918 22.9522 33.4142 22.5407 32.8954 22.3301C32.976 22.0215 33.4045 21.0501 35.6615 18.9521C37.0534 17.659 38.5371 15.7961 37.7139 14.2614C36.8907 12.7266 34.6031 12.6483 29.7733 13.9169C22.8009 15.5104 12.7611 22.0689 9.82744 25.5547C7.07745 28.2421 5.50833 28.82 5.00409 28.82C5.00409 28.6274 5.0782 28.2323 5.39073 27.6412L5.65977 27.1857C12.8545 15.3651 25.314 8.3086 39.0076 8.3086C52.54 8.3086 64.977 15.4532 72.0638 26.7237C70.7559 25.475 69.3679 24.3155 67.909 23.2526Z" fill="white"/>
</g>
<defs>
<clipPath id="clip0_30_93">
<rect width="78" height="84" fill="white" transform="translate(0 6)"/>
</clipPath>
</defs>
</svg>
