<svg width="20" height="20" viewBox="0 0 20 20" fill="none" xmlns="http://www.w3.org/2000/svg">
<path fill-rule="evenodd" clip-rule="evenodd" d="M4 0C1.79086 0 0 1.79086 0 4V16C0 18.2091 1.79086 20 4 20H9.88077V13.1578H7.516V10.4913H9.88077V8.52491C9.88077 6.2427 11.3119 5 13.403 5C14.4047 5 15.265 5.07288 15.516 5.10528V7.49055L14.066 7.49129C12.929 7.49129 12.709 8.01767 12.709 8.7892V10.492H15.4207L15.0677 13.1585H12.709V20H16C18.2091 20 20 18.2091 20 16V4C20 1.79086 18.2091 0 16 0H4Z" fill="#969696"/>
</svg>
