<svg width="20" height="20" viewBox="0 0 20 20" fill="none" xmlns="http://www.w3.org/2000/svg">
<path fill-rule="evenodd" clip-rule="evenodd" d="M10 0C7.28417 0 6.94417 0.0116667 5.8775 0.06C2.24583 0.226667 0.2275 2.24167 0.0608333 5.87667C0.0116667 6.94417 0 7.28417 0 10C0 12.7158 0.0116667 13.0567 0.06 14.1233C0.226667 17.755 2.24167 19.7733 5.87667 19.94C6.94417 19.9883 7.28417 20 10 20C12.7158 20 13.0567 19.9883 14.1233 19.94C17.7517 19.7733 19.775 17.7583 19.9392 14.1233C19.9883 13.0567 20 12.7158 20 10C20 7.28417 19.9883 6.94417 19.94 5.8775C19.7767 2.24917 17.7592 0.2275 14.1242 0.0608333C13.0567 0.0116667 12.7158 0 10 0ZM10 4.865C7.16417 4.865 4.865 7.16417 4.865 10C4.865 12.8358 7.16417 15.1358 10 15.1358C12.8358 15.1358 15.135 12.8367 15.135 10C15.135 7.16417 12.8358 4.865 10 4.865ZM10 13.3333C8.15917 13.3333 6.66667 11.8417 6.66667 10C6.66667 8.15917 8.15917 6.66667 10 6.66667C11.8408 6.66667 13.3333 8.15917 13.3333 10C13.3333 11.8417 11.8408 13.3333 10 13.3333ZM15.3383 3.4625C14.675 3.4625 14.1375 4 14.1375 4.6625C14.1375 5.325 14.675 5.8625 15.3383 5.8625C16.0008 5.8625 16.5375 5.325 16.5375 4.6625C16.5375 4 16.0008 3.4625 15.3383 3.4625Z" fill="#969696"/>
</svg>
