<svg width="20" height="17" viewBox="0 0 20 17" fill="none" xmlns="http://www.w3.org/2000/svg">
<path fill-rule="evenodd" clip-rule="evenodd" d="M20 1.92417C19.2642 2.25083 18.4733 2.47083 17.6433 2.57C18.4908 2.0625 19.1417 1.25833 19.4475 0.3C18.655 0.77 17.7767 1.11167 16.8417 1.29583C16.0942 0.498333 15.0267 0 13.8467 0C11.1975 0 9.25083 2.47167 9.84917 5.0375C6.44 4.86667 3.41667 3.23333 1.3925 0.750833C0.3175 2.595 0.835 5.0075 2.66167 6.22917C1.99 6.2075 1.35667 6.02333 0.804167 5.71583C0.759167 7.61667 2.12167 9.395 4.095 9.79083C3.5175 9.9475 2.885 9.98417 2.24167 9.86083C2.76333 11.4908 4.27833 12.6767 6.075 12.71C4.35 14.0625 2.17667 14.6667 0 14.41C1.81583 15.5742 3.97333 16.2533 6.29 16.2533C13.9083 16.2533 18.2125 9.81917 17.9525 4.04833C18.7542 3.46917 19.45 2.74667 20 1.92417Z" fill="#969696"/>
</svg>
